<svg xmlns="http://www.w3.org/2000/svg" width="115.313" height="85.147" viewBox="0 0 115.313 85.147">
  <g id="グループ_25" data-name="グループ 25" transform="translate(-270.552 -174.84)">
    <g id="グループ_1" data-name="グループ 1" transform="translate(298.166 174.84)">
      <path id="パス_1" data-name="パス 1" d="M377.372,242.455a2.568,2.568,0,0,1-.243-5.124c4.18-.4,8.923-3.932,11.536-8.583a15.861,15.861,0,0,0,.505-15,19.676,19.676,0,0,0-10.365-9.377l-1.02-.433.147,1.324c.844,8.683-1.092,15.078-5.919,19.547a20.334,20.334,0,0,1-13.683,5.3A16.421,16.421,0,0,1,348.14,226.8c-5.335-4.221-6.755-12.743-3.166-19,3.9-6.806,12.228-10.869,22.272-10.869.414,0,.832.007,1.251.021.665.024,1.333.065,1.983.123l.858.076-.164-.845c-.171-.882-.329-1.708-.462-2.425l-.09-.484-.491-.043c-.379-.034-.773-.08-1.171-.136-9.814-1.41-17.21-6.733-19.3-13.893a2.571,2.571,0,0,1,2.466-3.288,2.653,2.653,0,0,1,2.466,1.859c1.806,5.079,7.224,9.013,13.805,10.022l.966.185-.22-.967a14.318,14.318,0,0,1-.356-6.193,7.634,7.634,0,0,1,4.832-5.658,7.9,7.9,0,0,1,2.668-.45,8.7,8.7,0,0,1,5.211,1.719,8.224,8.224,0,0,1,2.382,9.911,11.552,11.552,0,0,1-7.545,6.369l-.566.164.109.579c.126.663.268,1.4.418,2.171l.477,2.461.38.111c7.7,2.245,13.614,6.927,16.64,13.185a20.81,20.81,0,0,1-.647,19.755c-3.442,6.122-9.68,10.614-15.522,11.178A2.487,2.487,0,0,1,377.372,242.455ZM367.2,202.069c-8.15,0-14.794,3.1-17.771,8.291-2.577,4.488-1.1,10.043,1.9,12.416a11.279,11.279,0,0,0,7,2.225,15.382,15.382,0,0,0,10.2-3.964c3.621-3.352,4.986-8.212,4.3-15.293-.066-.673-.2-1.611-.4-2.788l-.079-.461-.462-.071a30.906,30.906,0,0,0-3.562-.337C367.94,202.076,367.567,202.069,367.2,202.069Zm9.085-22.1a2.787,2.787,0,0,0-.94.152,2.579,2.579,0,0,0-1.568,2.034c-.21.864,0,2.414.7,5.183l.172.679.664-.224a6.069,6.069,0,0,0,3.824-3.3,3.175,3.175,0,0,0-.729-3.837A3.638,3.638,0,0,0,376.284,179.972Z" transform="translate(-342.991 -174.84)" fill="#231815"/>
      <path id="パス_2" data-name="パス 2" d="M468.956,219.785a2.6,2.6,0,0,1-2.591-2.545,2.51,2.51,0,0,1,2.567-2.589,25.783,25.783,0,0,0,6.468-1.526,3.682,3.682,0,0,1,1.445-.39,2.567,2.567,0,0,1,1.344,4.754,19.833,19.833,0,0,1-9.052,2.3Z" transform="translate(-419.33 -198.29)" fill="#231815"/>
    </g>
    <g id="グループ_2" data-name="グループ 2" transform="translate(270.552 248.276)">
      <path id="パス_3" data-name="パス 3" d="M273.869,380.818a3.308,3.308,0,1,0,2.349.976A3.2,3.2,0,0,0,273.869,380.818Zm-1.4,4.745a2.037,2.037,0,0,1,0-2.86,1.962,1.962,0,0,1,2.787,0,2,2,0,1,1-2.787,2.864Z" transform="translate(-270.552 -375.736)" fill="#231815"/>
      <path id="パス_4" data-name="パス 4" d="M323.863,382.26h-.321V375.25a.4.4,0,0,0-.405-.383h-1.278a.807.807,0,0,0-.558.177.624.624,0,0,0-.215.472.637.637,0,0,0,.213.477.814.814,0,0,0,.56.176h.323v1.642a3.269,3.269,0,0,0-3.627-.237,3.2,3.2,0,0,0-1.22,1.238,3.292,3.292,0,0,0,0,3.278,3.173,3.173,0,0,0,1.221,1.238,3.258,3.258,0,0,0,1.626.437,3.183,3.183,0,0,0,2-.669v.077a.4.4,0,0,0,.4.384h1.279a.793.793,0,0,0,.555-.175.62.62,0,0,0,.218-.475.627.627,0,0,0-.22-.48A.835.835,0,0,0,323.863,382.26Zm-1.682-1.808a1.935,1.935,0,0,1-.589,1.437,1.991,1.991,0,0,1-2.755-2.875,1.936,1.936,0,0,1,2.755,0A1.934,1.934,0,0,1,322.181,380.452Z" transform="translate(-299.23 -372.053)" fill="#231815"/>
      <path id="パス_5" data-name="パス 5" d="M369.48,380.818a3.313,3.313,0,0,0-3.317,3.316,3.318,3.318,0,1,0,3.317-3.316Zm-.007,1.3a1.888,1.888,0,0,1,1.4.578,1.986,1.986,0,1,1-2.786.006A1.862,1.862,0,0,1,369.473,382.12Z" transform="translate(-329.716 -375.736)" fill="#231815"/>
      <path id="パス_6" data-name="パス 6" d="M415.972,381.274a6.075,6.075,0,0,0-1,.684v-.483a.4.4,0,0,0-.4-.383h-1.552a.794.794,0,0,0-.564.186.617.617,0,0,0-.2.462.634.634,0,0,0,.216.48.813.813,0,0,0,.55.175h.6v3.653h-.913a.805.805,0,0,0-.552.174.593.593,0,0,0-.215.46.611.611,0,0,0,.215.47.824.824,0,0,0,.552.174h4.274a.8.8,0,0,0,.555-.175.61.61,0,0,0,.22-.475.621.621,0,0,0-.22-.478.825.825,0,0,0-.555-.169h-2.006v-2.353a10.761,10.761,0,0,1,1.54-1.194c.464-.256.6-.284.8-.187a1.3,1.3,0,0,1,.287.225,1.089,1.089,0,0,0,.264.215.73.73,0,0,0,.8-.125.647.647,0,0,0,.2-.467c0-.244-.172-.479-.57-.779A2.038,2.038,0,0,0,415.972,381.274Z" transform="translate(-358.044 -375.822)" fill="#231815"/>
      <path id="パス_7" data-name="パス 7" d="M464.816,386.246h-1.732v-4.553a.4.4,0,0,0-.405-.384h-2.133a.8.8,0,0,0-.563.179.631.631,0,0,0,.02.959.826.826,0,0,0,.543.165h1.182v3.634h-1.733a.832.832,0,0,0-.559.173.627.627,0,0,0-.21.473.6.6,0,0,0,.2.461.8.8,0,0,0,.566.189h4.821a.806.806,0,0,0,.557-.175.613.613,0,0,0,.219-.475.629.629,0,0,0-.219-.478A.824.824,0,0,0,464.816,386.246Z" transform="translate(-387.304 -376.04)" fill="#231815"/>
      <path id="パス_8" data-name="パス 8" d="M508.877,377.135a3.159,3.159,0,0,0-1.975.672V375.25a.4.4,0,0,0-.4-.383h-1.279a.8.8,0,0,0-.555.18.609.609,0,0,0-.212.469.639.639,0,0,0,.212.477.812.812,0,0,0,.555.176h.327v6.09h-.327a.831.831,0,0,0-.555.173.614.614,0,0,0-.212.473.606.606,0,0,0,.2.461.8.8,0,0,0,.566.189H506.5a.4.4,0,0,0,.4-.384V383.1a3.142,3.142,0,0,0,1.975.663,3.191,3.191,0,0,0,2.328-.979,3.232,3.232,0,0,0,.969-2.357,3.174,3.174,0,0,0-.963-2.335A3.213,3.213,0,0,0,508.877,377.135Zm-.015,1.3a1.854,1.854,0,0,1,1.359.577,2.033,2.033,0,0,1,0,2.874,1.873,1.873,0,0,1-2.72,0,2.039,2.039,0,0,1,0-2.872A1.877,1.877,0,0,1,508.862,378.438Z" transform="translate(-415.291 -372.053)" fill="#231815"/>
      <path id="パス_9" data-name="パス 9" d="M561.351,386.111a.826.826,0,0,0-.557-.169h-.322v-3.126a1.824,1.824,0,0,0-.709-1.407,2.8,2.8,0,0,0-1.881-.591,7.017,7.017,0,0,0-1.634.277c-.629.16-.815.258-.919.364a.608.608,0,0,0-.179.437.621.621,0,0,0,.187.448.647.647,0,0,0,.471.2,1.276,1.276,0,0,0,.4-.085c1.6-.5,2.282-.388,2.641-.1a.564.564,0,0,1,.268.463v.4c-.173-.029-.34-.051-.5-.069a4.352,4.352,0,0,0-3.239.614,2.05,2.05,0,0,0-.873,1.64,1.884,1.884,0,0,0,.686,1.465,2.652,2.652,0,0,0,1.8.584,4.132,4.132,0,0,0,2.129-.6v0a.4.4,0,0,0,.405.384h1.276a.792.792,0,0,0,.557-.175.614.614,0,0,0,.219-.475A.631.631,0,0,0,561.351,386.111Zm-5.5-.713a.693.693,0,0,1,.35-.589,2.648,2.648,0,0,1,1.6-.417,7.2,7.2,0,0,1,.849.048,4.463,4.463,0,0,1,.455.072v.709a4.107,4.107,0,0,1-1.018.69,2.191,2.191,0,0,1-1.991.006A.643.643,0,0,1,555.854,385.4Z" transform="translate(-446.258 -375.736)" fill="#231815"/>
      <path id="パス_10" data-name="パス 10" d="M464.556,370.211a1.363,1.363,0,1,0-1.361-1.362A1.362,1.362,0,0,0,464.556,370.211Z" transform="translate(-389.76 -367.486)" fill="#231815"/>
    </g>
  </g>
</svg>
