<svg xmlns="http://www.w3.org/2000/svg" viewBox="0 0 66.411 70.034"><defs><style>.a{fill:none;stroke:#0086bf;stroke-linecap:round;stroke-miterlimit:10;stroke-width:6.7px;opacity:0.55;}</style></defs><path class="a" d="M10.18,4.464c4.6,10.257,12.967,13.728,20.516,12.772,3.11-.395,9.08-2.386,10.2-6.768a5.983,5.983,0,0,0-1.537-5.852c-2.1-1.834-5.926-1.738-9.02.7,0,0-1.946,1.834-1.061,5.689S34.41,32.033,33.7,38.951c-.71,6.944-5.129,13.265-14.326,15.09-8.888,1.765-14.856-5.064-15.917-11.2s5.9-12.942,9.02-14.5c3.183-1.592,14.326-3.217,18.217-2.692S43.253,29.968,46.613,34s5.306,9.624,4.952,13.088c-.272,2.668-1.307,9.266-4.6,12.557-3.537,3.537-12.728,8.66-15.033,6.544C29.67,64.111,36.3,58.7,42.015,44.788c4.053-9.864,4.4-18.226,6.312-24.17,3.415-.237,3.946-.414,8.721-2.006a29.037,29.037,0,0,0,6.013-3.183"/></svg>