<svg id="グループ_1" data-name="グループ 1" xmlns="http://www.w3.org/2000/svg" width="60.082" height="67.615" viewBox="0 0 60.082 67.615">
  <path id="パス_1" data-name="パス 1" d="M377.372,242.455a2.568,2.568,0,0,1-.243-5.124c4.18-.4,8.923-3.932,11.536-8.583a15.861,15.861,0,0,0,.505-15,19.676,19.676,0,0,0-10.365-9.377l-1.02-.433.147,1.324c.844,8.683-1.092,15.078-5.919,19.547a20.334,20.334,0,0,1-13.683,5.3A16.421,16.421,0,0,1,348.14,226.8c-5.335-4.221-6.755-12.743-3.166-19,3.9-6.806,12.228-10.869,22.272-10.869.414,0,.832.007,1.251.021.665.024,1.333.065,1.983.123l.858.076-.164-.845c-.171-.882-.329-1.708-.462-2.425l-.09-.484-.491-.043c-.379-.034-.773-.08-1.171-.136-9.814-1.41-17.21-6.733-19.3-13.893a2.571,2.571,0,0,1,2.466-3.288,2.653,2.653,0,0,1,2.466,1.859c1.806,5.079,7.224,9.013,13.805,10.022l.966.185-.22-.967a14.318,14.318,0,0,1-.356-6.193,7.634,7.634,0,0,1,4.832-5.658,7.9,7.9,0,0,1,2.668-.45,8.7,8.7,0,0,1,5.211,1.719,8.224,8.224,0,0,1,2.382,9.911,11.552,11.552,0,0,1-7.545,6.369l-.566.164.109.579c.126.663.268,1.4.418,2.171l.477,2.461.38.111c7.7,2.245,13.614,6.927,16.64,13.185a20.81,20.81,0,0,1-.647,19.755c-3.442,6.122-9.68,10.614-15.522,11.178A2.487,2.487,0,0,1,377.372,242.455ZM367.2,202.069c-8.15,0-14.794,3.1-17.771,8.291-2.577,4.488-1.1,10.043,1.9,12.416a11.279,11.279,0,0,0,7,2.225,15.382,15.382,0,0,0,10.2-3.964c3.621-3.352,4.986-8.212,4.3-15.293-.066-.673-.2-1.611-.4-2.788l-.079-.461-.462-.071a30.906,30.906,0,0,0-3.562-.337C367.94,202.076,367.567,202.069,367.2,202.069Zm9.085-22.1a2.787,2.787,0,0,0-.94.152,2.579,2.579,0,0,0-1.568,2.034c-.21.864,0,2.414.7,5.183l.172.679.664-.224a6.069,6.069,0,0,0,3.824-3.3,3.175,3.175,0,0,0-.729-3.837A3.638,3.638,0,0,0,376.284,179.972Z" transform="translate(-342.991 -174.84)" fill="#231815"/>
  <path id="パス_2" data-name="パス 2" d="M468.956,219.785a2.6,2.6,0,0,1-2.591-2.545,2.51,2.51,0,0,1,2.567-2.589,25.783,25.783,0,0,0,6.468-1.526,3.682,3.682,0,0,1,1.445-.39,2.567,2.567,0,0,1,1.344,4.754,19.833,19.833,0,0,1-9.052,2.3Z" transform="translate(-419.33 -198.29)" fill="#231815"/>
</svg>
