<?xml version="1.0" encoding="utf-8"?>
<!-- Generator: Adobe Illustrator 25.0.0, SVG Export Plug-In . SVG Version: 6.00 Build 0)  -->
<svg version="1.1" xmlns="http://www.w3.org/2000/svg" xmlns:xlink="http://www.w3.org/1999/xlink" x="0px" y="0px"
	 viewBox="0 0 1000 1000" style="enable-background:new 0 0 1000 1000;" xml:space="preserve">
<style type="text/css">
	.st0{fill:#231815;}
	.st1{opacity:0.55;fill:none;stroke:#0086BF;stroke-width:6.7;stroke-linecap:round;stroke-miterlimit:10;}
</style>
<g id="レイヤー_2">
</g>
<g id="base">
	<g>
		<path id="パス_1" class="st0" d="M527.686,535.93c-1.418-0.003-2.566-1.155-2.563-2.573c0.003-1.32,1.006-2.424,2.32-2.551
			c4.18-0.4,8.923-3.932,11.536-8.583c2.673-4.599,2.863-10.232,0.505-15c-2.191-4.289-5.879-7.625-10.365-9.377l-1.02-0.433
			l0.147,1.324c0.844,8.683-1.092,15.078-5.919,19.547c-3.742,3.408-8.621,5.298-13.683,5.3c-3.671,0.067-7.259-1.098-10.19-3.309
			c-5.335-4.221-6.755-12.743-3.166-19c3.9-6.806,12.228-10.869,22.272-10.869c0.414,0,0.832,0.007,1.251,0.021
			c0.665,0.024,1.333,0.065,1.983,0.123l0.858,0.076l-0.164-0.845c-0.171-0.882-0.329-1.708-0.462-2.425l-0.09-0.484l-0.491-0.043
			c-0.379-0.034-0.773-0.08-1.171-0.136c-9.814-1.41-17.21-6.733-19.3-13.893c-0.396-1.364,0.388-2.79,1.752-3.186
			c0.232-0.067,0.472-0.102,0.714-0.102c1.135,0.028,2.127,0.775,2.466,1.859c1.806,5.079,7.224,9.013,13.805,10.022l0.966,0.185
			l-0.22-0.967c-0.57-2.014-0.691-4.127-0.356-6.193c0.52-2.596,2.349-4.738,4.832-5.658c0.857-0.302,1.759-0.455,2.668-0.45
			c1.877-0.004,3.705,0.599,5.211,1.719c2.992,2.354,3.978,6.454,2.382,9.911c-1.435,3.145-4.204,5.482-7.545,6.369l-0.566,0.164
			l0.109,0.579c0.126,0.663,0.268,1.4,0.418,2.171l0.477,2.461l0.38,0.111c7.7,2.245,13.614,6.927,16.64,13.185
			c3.125,6.274,2.882,13.699-0.647,19.755c-3.442,6.122-9.68,10.614-15.522,11.178C527.854,535.923,527.77,535.928,527.686,535.93z
			 M517.514,495.544c-8.15,0-14.794,3.1-17.771,8.291c-2.577,4.488-1.1,10.043,1.9,12.416c2.02,1.502,4.484,2.285,7,2.225
			c3.771-0.026,7.401-1.437,10.2-3.964c3.621-3.352,4.986-8.212,4.3-15.293c-0.066-0.673-0.2-1.611-0.4-2.788l-0.079-0.461
			l-0.462-0.071c-1.18-0.181-2.369-0.294-3.562-0.337C518.254,495.551,517.881,495.544,517.514,495.544z M526.599,473.444
			c-0.32-0.004-0.638,0.048-0.94,0.152c-0.847,0.351-1.444,1.125-1.568,2.034c-0.21,0.864,0,2.414,0.7,5.183l0.172,0.679
			l0.664-0.224c1.694-0.492,3.089-1.697,3.824-3.3c0.665-1.295,0.365-2.876-0.729-3.837c-0.619-0.445-1.362-0.684-2.124-0.684
			L526.599,473.444z"/>
		<path id="パス_2" class="st0" d="M542.931,489.81c-1.411-0.005-2.561-1.134-2.591-2.545c-0.044-1.386,1.044-2.544,2.429-2.588
			c0.046-0.001,0.092-0.002,0.138-0.001c2.213-0.228,4.387-0.74,6.468-1.526c0.45-0.228,0.942-0.36,1.445-0.39
			c1.418,0,2.567,1.149,2.567,2.567c0,0.892-0.463,1.72-1.223,2.187c-2.791,1.476-5.895,2.265-9.052,2.3L542.931,489.81z"/>
	</g>
</g>
<g id="mask">
	<path class="st1" d="M502.212,471.672c4.598,10.258,12.967,13.729,20.516,12.772c3.11-0.394,9.08-2.385,10.204-6.767
		c0.469-1.828,0.168-4.362-1.537-5.852c-2.099-1.835-5.926-1.739-9.02,0.701c0,0-1.945,1.834-1.061,5.69
		c0.884,3.856,5.129,21.026,4.422,27.944c-0.71,6.944-5.129,13.265-14.326,15.09c-8.889,1.764-14.856-5.065-15.917-11.199
		c-1.061-6.134,5.898-12.942,9.02-14.503c3.184-1.592,14.326-3.217,18.217-2.691c3.891,0.526,12.557,4.32,15.917,8.351
		s5.306,9.624,4.952,13.088c-0.273,2.668-1.308,9.266-4.598,12.557c-3.537,3.537-12.727,8.659-15.033,6.544
		c-2.263-2.076,4.365-7.488,10.081-21.4c4.053-9.864,4.404-18.226,6.313-24.17c3.415-0.237,3.945-0.414,8.721-2.006
		c2.045-0.682,4.716-2.297,6.013-3.184"/>
</g>
</svg>
